PathFileType  4	(X/Y/Z) C:\Users\wagnerel85475\Documents\Thesis\opencap-core\Data\3375ffbc-daeb-4a43-b4f7-ac9899cd4c71\MarkerData\PreAugmentation
DataRate	CameraRate	NumFrames	NumMarkers	Units	OrigDataRate	OrigDataStartFrame	OrigNumFrames
60.0	60.0	11	20	m	60.0	103	822
Frame#	Time	Neck			RShoulder			RElbow			RWrist			LShoulder			LElbow			LWrist			midHip			RHip			RKnee			RAnkle			LHip			LKnee			LAnkle			LBigToe			LSmallToe			LHeel			RBigToe			RSmallToe			RHeel			
		X1	Y1	Z1	X2	Y2	Z2	X3	Y3	Z3	X4	Y4	Z4	X5	Y5	Z5	X6	Y6	Z6	X7	Y7	Z7	X8	Y8	Z8	X9	Y9	Z9	X10	Y10	Z10	X11	Y11	Z11	X12	Y12	Z12	X13	Y13	Z13	X14	Y14	Z14	X15	Y15	Z15	X16	Y16	Z16	X17	Y17	Z17	X18	Y18	Z18	X19	Y19	Z19	X20	Y20	Z20	

103	1.7000000	0.5835000	1.3519800	-0.0740700	0.5960300	1.3637300	0.1166900	0.5349000	1.0471400	0.1901800	0.6516600	0.7672300	0.2395800	0.6092100	1.3479000	-0.2575600	0.5379500	1.0459000	-0.3149700	0.6074300	0.7510600	-0.3546100	0.6431000	0.8217800	-0.0528700	0.6309300	0.8198800	0.0593700	0.5800200	0.3273400	0.0716900	0.4853900	-0.1844900	0.1253100	0.6423600	0.8197700	-0.1803000	0.5459900	0.3143400	-0.1805900	0.5295000	-0.1759400	-0.2402700	0.7702800	-0.2197300	-0.2850300	0.7173900	-0.2208900	-0.3172900	0.4597300	-0.2435500	-0.2176900	0.7279500	-0.2310500	0.1889000	0.6676000	-0.2378600	0.2235500	0.4640400	-0.2255800	0.1079100
104	1.7166667	0.5826000	1.3521300	-0.0736000	0.5965700	1.3635300	0.1165900	0.5350600	1.0473500	0.1898600	0.6503900	0.7669500	0.2388500	0.6081200	1.3477300	-0.2573300	0.5366600	1.0421300	-0.3150200	0.5973000	0.7492100	-0.3517100	0.6436600	0.8184200	-0.0529200	0.6314000	0.8194000	0.0590600	0.5799100	0.3282700	0.0714200	0.4853200	-0.1843900	0.1254400	0.6336200	0.8157000	-0.1761100	0.5457800	0.3142900	-0.1807900	0.5293400	-0.1756400	-0.2402000	0.7701600	-0.2199000	-0.2848500	0.7160200	-0.2212100	-0.3174800	0.4611500	-0.2391300	-0.2171600	0.7276400	-0.2311800	0.1888800	0.6683000	-0.2378200	0.2234800	0.4630700	-0.2259500	0.1083300
105	1.7333333	0.5834400	1.3520300	-0.0741200	0.5959400	1.3637800	0.1166800	0.5350200	1.0469800	0.1899600	0.6513600	0.7671200	0.2394600	0.6092100	1.3479400	-0.2576000	0.5379300	1.0419500	-0.3147900	0.5975600	0.7419100	-0.3509500	0.6427900	0.8184900	-0.0526500	0.6311000	0.8199100	0.0593600	0.5796300	0.3316100	0.0721400	0.4942300	-0.1814700	0.1208500	0.6333900	0.8186200	-0.1762300	0.5364800	0.3122600	-0.1842400	0.5294900	-0.1759100	-0.2402800	0.7702700	-0.2198200	-0.2849900	0.7174400	-0.2209700	-0.3172500	0.4605700	-0.2397900	-0.2171800	0.7280500	-0.2310300	0.1888100	0.6676800	-0.2379200	0.2234700	0.4642200	-0.2255200	0.1079200
106	1.7500000	0.5824600	1.3523100	-0.0736400	0.5965000	1.3635800	0.1166400	0.5350300	1.0472600	0.1897100	0.6500300	0.7627700	0.2384400	0.6079300	1.3480000	-0.2573800	0.5268200	1.0418100	-0.3190500	0.5959700	0.7419400	-0.3512100	0.6441400	0.8216400	-0.0531200	0.6315200	0.8195800	0.0590900	0.5710900	0.3263100	0.0759900	0.4853200	-0.1843700	0.1254500	0.6337100	0.8185800	-0.1762900	0.5365100	0.3121500	-0.1767800	0.5293700	-0.1756200	-0.2402000	0.7701400	-0.2200100	-0.2848500	0.7159900	-0.2214100	-0.3174500	0.4611800	-0.2390500	-0.2171600	0.7356600	-0.2282000	0.1844100	0.6683400	-0.2377900	0.2234600	0.4631900	-0.2261200	0.1083200
107	1.7666667	0.5832900	1.3521400	-0.0741500	0.5958800	1.3636900	0.1166600	0.5350900	1.0468500	0.1899000	0.6409700	0.7616100	0.2362700	0.6090200	1.3481100	-0.2576700	0.5280500	1.0419800	-0.3188300	0.5869700	0.7410300	-0.3542000	0.6431300	0.8217500	-0.0528800	0.6310100	0.8201200	0.0593600	0.5801100	0.3349100	0.0717100	0.4853700	-0.1844900	0.1253400	0.6334100	0.8186200	-0.1762400	0.5367500	0.3122500	-0.1765100	0.5294800	-0.1759100	-0.2403000	0.7702400	-0.2199000	-0.2850100	0.7093600	-0.2238900	-0.3209000	0.4596500	-0.2434800	-0.2177100	0.7280800	-0.2310500	0.1888900	0.6675800	-0.2379700	0.2235200	0.4642600	-0.2257900	0.1079500
108	1.7833333	0.5825400	1.3522800	-0.0736900	0.5965400	1.3635600	0.1165900	0.5240500	1.0465600	0.1865600	0.6397900	0.7540200	0.2354500	0.6080600	1.3479700	-0.2574500	0.5167200	1.0454000	-0.3154000	0.5770000	0.7396200	-0.3513400	0.6440800	0.8184700	-0.0529600	0.6318500	0.8197500	0.0590700	0.5799000	0.3357500	0.0714800	0.4853900	-0.1844300	0.1254700	0.6427700	0.8196200	-0.1803900	0.5456700	0.3143000	-0.1808100	0.5293200	-0.1757000	-0.2402300	0.7777400	-0.2145400	-0.2818600	0.7157200	-0.2252300	-0.3179600	0.4601900	-0.2429000	-0.2177500	0.7275200	-0.2311300	0.1888700	0.6681800	-0.2378500	0.2235100	0.4633200	-0.2264000	0.1083600
109	1.8000000	0.5833600	1.3520000	-0.0742100	0.5959800	1.3637000	0.1165900	0.5438600	1.0472600	0.1851300	0.6409800	0.7541000	0.2362200	0.6090500	1.3478300	-0.2577300	0.5179700	1.0453900	-0.3152200	0.5771000	0.7398000	-0.3505100	0.6427200	0.8183500	-0.0526700	0.6306400	0.8165700	0.0596000	0.5712400	0.3253000	0.0763400	0.4853800	-0.1844000	0.1252800	0.6333600	0.8112900	-0.1762500	0.5366600	0.3124800	-0.1843100	0.5294100	-0.1760100	-0.2403100	0.7780400	-0.2145100	-0.2820600	0.7173100	-0.2248700	-0.3178100	0.4594700	-0.2435400	-0.2177300	0.7280600	-0.2310700	0.1888200	0.6676100	-0.2379700	0.2234600	0.4639000	-0.2255000	0.1080000
110	1.8166667	0.5824400	1.3522900	-0.0737600	0.5966000	1.3635500	0.1165300	0.5436500	1.0476600	0.1849600	0.6397700	0.7538900	0.2353900	0.6078500	1.3478800	-0.2575400	0.5070900	1.0450600	-0.3194800	0.5766700	0.7432200	-0.3515800	0.6437600	0.8182900	-0.0529500	0.6310800	0.8160600	0.0592700	0.5705000	0.3230500	0.0765900	0.4941100	-0.1813700	0.1209900	0.6335200	0.8155400	-0.1761300	0.5364400	0.3123700	-0.1845700	0.5293200	-0.1756500	-0.2402100	0.7778300	-0.2145800	-0.2819200	0.7157800	-0.2251500	-0.3180300	0.4601500	-0.2427400	-0.2177100	0.7275400	-0.2310700	0.1888500	0.6682800	-0.2377900	0.2234800	0.4630300	-0.2259600	0.1083600
111	1.8333333	0.5737000	1.3521100	-0.0777400	0.5958800	1.3635800	0.1166100	0.5351900	1.0467500	0.1898800	0.6304900	0.7528400	0.2331600	0.5995700	1.3477800	-0.2618200	0.5084300	1.0448900	-0.3192600	0.5773400	0.7434700	-0.3507200	0.6335100	0.8132600	-0.0563900	0.6312300	0.8125300	0.0593800	0.5712800	0.3207900	0.0680500	0.4853900	-0.1844100	0.1252800	0.6332200	0.8111500	-0.1762400	0.5364700	0.3123900	-0.1843100	0.5295400	-0.1760000	-0.2402900	0.7695500	-0.2213800	-0.2862600	0.7089600	-0.2279900	-0.3215800	0.4597100	-0.2437000	-0.2176900	0.7176500	-0.2309800	0.1866400	0.6673000	-0.2378000	0.2234600	0.4530700	-0.2288900	0.1048500
112	1.8500000	0.5814600	1.3522700	-0.0814500	0.5966100	1.3633700	0.1165100	0.5349000	1.0397000	0.1898000	0.6292500	0.7564800	0.2325500	0.5985000	1.3478800	-0.2616500	0.5066200	1.0450400	-0.3196000	0.5769900	0.7435000	-0.3517500	0.6347000	0.8132100	-0.0567100	0.6319400	0.8121400	0.0590300	0.5806600	0.3237500	0.0709500	0.4852900	-0.1843900	0.1254500	0.6335300	0.8111200	-0.1763600	0.5362600	0.3122900	-0.1845900	0.5294000	-0.1756700	-0.2401900	0.7696100	-0.2214600	-0.2861700	0.7166600	-0.2249200	-0.3255500	0.4603600	-0.2429600	-0.2176700	0.7173900	-0.2344500	0.1860200	0.6679400	-0.2376700	0.2234900	0.4627800	-0.2260300	0.1084200
113	1.8666667	0.5823000	1.3520000	-0.0818700	0.5960900	1.3590600	0.1166600	0.5349900	1.0392700	0.1901500	0.6304700	0.7603000	0.2331400	0.5997600	1.3440800	-0.2618200	0.5083200	1.0450400	-0.3193700	0.5868300	0.7485400	-0.3545100	0.6328400	0.8172800	-0.0562200	0.6304800	0.8164900	0.0595400	0.5719700	0.3209400	0.0757800	0.4854700	-0.1811900	0.1246800	0.6328800	0.8111500	-0.1762000	0.5364600	0.3124500	-0.1842500	0.5290500	-0.1728500	-0.2408500	0.7697600	-0.2212400	-0.2863500	0.7182900	-0.2245600	-0.3253600	0.4691400	-0.2405000	-0.2139900	0.7176600	-0.2343200	0.1859900	0.6671300	-0.2377900	0.2234300	0.4531600	-0.2288600	0.1048000
